<svg width="91" height="53" viewBox="0 0 91 53" fill="none" xmlns="http://www.w3.org/2000/svg">
<path d="M4.12 23.48L2.88 19.8C3.36 19.48 4.02667 19.1867 4.88 18.92C5.76 18.6533 6.64 18.4533 7.52 18.32C8.4 18.16 9.10667 18.08 9.64 18.08C11.16 18.08 12.5333 18.3867 13.76 19C14.9867 19.6133 15.96 20.44 16.68 21.48C17.4 22.52 17.76 23.7067 17.76 25.04V38H14.76L14.08 36.04C13.3867 36.7067 12.56 37.28 11.6 37.76C10.64 38.24 9.65333 38.48 8.64 38.48C6.32 38.48 4.6 37.9067 3.48 36.76C2.36 35.5867 1.8 34.1067 1.8 32.32C1.8 30.3467 2.46667 28.84 3.8 27.8C5.13333 26.7333 6.86667 26.2 9 26.2H13.24V26.08C13.2133 24.9333 12.9333 24 12.4 23.28C11.8667 22.5333 10.9733 22.16 9.72 22.16C8.70667 22.16 7.69333 22.3067 6.68 22.6C5.69333 22.8667 4.84 23.16 4.12 23.48ZM5.72 32.32C5.72 32.96 5.96 33.56 6.44 34.12C6.94667 34.6533 7.65333 34.92 8.56 34.92C9.44 34.92 10.28 34.72 11.08 34.32C11.88 33.92 12.6133 33.3733 13.28 32.68V29.2H8.92C7.88 29.2 7.08 29.52 6.52 30.16C5.98667 30.7733 5.72 31.4933 5.72 32.32ZM26.7219 38H22.2419V18.6H24.6419L26.1219 21.8C26.6285 21.3467 27.2552 20.88 28.0019 20.4C28.7752 19.8933 29.5752 19.4667 30.4019 19.12C31.2285 18.7733 31.9885 18.6 32.6819 18.6L33.6019 22.2C32.6419 22.2 31.5085 22.5467 30.2019 23.24C28.9219 23.9067 27.7619 24.7067 26.7219 25.64V38ZM39.0644 38H36.7044V10.2L41.1844 9.76V19.12C42.4644 18.4267 43.731 18.08 44.9844 18.08C46.9844 18.08 48.7044 18.5067 50.1444 19.36C51.611 20.1867 52.731 21.3733 53.5044 22.92C54.3044 24.4667 54.7044 26.28 54.7044 28.36C54.7044 30.36 54.3044 32.1333 53.5044 33.68C52.7044 35.2 51.571 36.3867 50.1044 37.24C48.6377 38.0933 46.9044 38.52 44.9044 38.52C44.211 38.52 43.411 38.36 42.5044 38.04C41.5977 37.72 40.7577 37.28 39.9844 36.72L39.0644 38ZM44.9044 21.92C44.1844 21.92 43.5177 22.0267 42.9044 22.24C42.3177 22.4533 41.7444 22.7733 41.1844 23.2V33.44C41.7444 33.8667 42.331 34.1733 42.9444 34.36C43.5577 34.5467 44.211 34.64 44.9044 34.64C46.531 34.64 47.7977 34.04 48.7044 32.84C49.611 31.64 50.0644 30.1467 50.0644 28.36C50.0644 26.4667 49.611 24.92 48.7044 23.72C47.8244 22.52 46.5577 21.92 44.9044 21.92ZM75.0613 29.48H61.6213C61.8079 31.0267 62.3679 32.28 63.3013 33.24C64.2613 34.2 65.7679 34.68 67.8213 34.68C68.9679 34.68 69.9679 34.52 70.8213 34.2C71.6746 33.88 72.5813 33.4667 73.5413 32.96L74.9013 36.24C73.9679 36.88 72.9146 37.4133 71.7413 37.84C70.5946 38.2667 69.2613 38.48 67.7413 38.48C64.1413 38.48 61.4346 37.56 59.6213 35.72C57.8079 33.8533 56.9013 31.3733 56.9013 28.28C56.9013 26.2533 57.2746 24.48 58.0213 22.96C58.7946 21.4133 59.8879 20.2133 61.3013 19.36C62.7146 18.5067 64.4079 18.08 66.3813 18.08C68.4079 18.08 70.0613 18.56 71.3413 19.52C72.6213 20.48 73.5546 21.76 74.1413 23.36C74.7546 24.9333 75.0613 26.6533 75.0613 28.52V29.48ZM61.7013 26.48H70.7413C70.5013 25.0133 70.0079 23.8933 69.2613 23.12C68.5413 22.32 67.5413 21.92 66.2613 21.92C64.9813 21.92 63.9413 22.32 63.1413 23.12C62.3679 23.92 61.8879 25.04 61.7013 26.48ZM82.9328 38H78.4528V18.6H80.8528L82.3328 21.8C82.8395 21.3467 83.4661 20.88 84.2128 20.4C84.9861 19.8933 85.7861 19.4667 86.6128 19.12C87.4395 18.7733 88.1995 18.6 88.8928 18.6L89.8128 22.2C88.8528 22.2 87.7195 22.5467 86.4128 23.24C85.1328 23.9067 83.9728 24.7067 82.9328 25.64V38Z" fill="#99BAED"/>
</svg>
